<svg xmlns="http://www.w3.org/2000/svg" viewBox="0 0 39.24 38.39"><defs><style>.cls-1{fill:#ff534a;}</style></defs><title>Fichier 1</title><g id="Calque_2" data-name="Calque 2"><g id="Calque_1-2" data-name="Calque 1"><polygon class="cls-1" points="12.9 38.14 9.3 36.48 18.74 20.35 19.76 20.92 12.9 38.14"/><polygon class="cls-1" points="29.76 36.65 26.2 38.39 19.64 20.89 20.73 20.46 29.76 36.65"/><polygon class="cls-1" points="39.24 22.64 38.34 26.5 20.63 20.53 20.99 19.42 39.24 22.64"/><polygon class="cls-1" points="34.35 6.44 36.79 9.57 20.98 19.54 20.34 18.56 34.35 6.44"/><polygon class="cls-1" points="18.71 0 22.67 0.09 20.43 18.65 19.27 18.52 18.71 0"/><polygon class="cls-1" points="3.84 8.07 6.41 5.05 19.39 18.51 18.56 19.33 3.84 8.07"/><polygon class="cls-1" points="0.71 24.7 0 20.8 18.62 19.23 18.74 20.39 0.71 24.7"/><circle class="cls-1" cx="19.77" cy="19.66" r="1.25"/></g></g></svg>