<svg id="Calque_1" data-name="Calque 1" xmlns="http://www.w3.org/2000/svg" viewBox="0 0 105.56 69.57"><defs><style>.cls-1{fill:#ff534a;}.cls-2{fill:#0c0c0c;}</style></defs><title>logo-sarah-veysset</title><rect class="cls-1" x="126.15" y="108.84" width="18" height="72.92" rx="9" ry="9" transform="translate(218.63 122.98) rotate(159.3)"/><rect class="cls-1" x="158.58" y="108.84" width="18" height="72.92" rx="9" ry="9" transform="translate(281.4 111.51) rotate(159.3)"/><rect class="cls-2" x="119.59" y="108.84" width="18" height="72.92" rx="9" ry="9" transform="translate(205.92 125.3) rotate(159.3)"/><rect class="cls-2" x="157.87" y="139.25" width="18" height="41.56" rx="9" ry="9" transform="translate(285.23 140.27) rotate(159.3)"/><rect class="cls-2" x="143.71" y="110.4" width="18" height="24.33" rx="9" ry="9" transform="translate(244.58 72.77) rotate(159.3)"/><rect class="cls-2" x="179.69" y="110.34" width="18.74" height="26.31" rx="9" ry="9" transform="translate(-38.46 -169.33) rotate(20.7)"/><rect class="cls-2" x="95.43" y="155.93" width="18" height="24.33" rx="9" ry="9" transform="translate(167.22 177.94) rotate(159.3)"/></svg>