<svg xmlns="http://www.w3.org/2000/svg" viewBox="0 0 194.8 194.8"><defs><style>.cls-1{fill:#ff534a;}.cls-2{font-size:18px;font-family:Poppins-SemiBold, Poppins;font-weight:700;}.cls-3{fill:none;stroke:#000;stroke-miterlimit:10;stroke-width:2px;}</style></defs><title>Fichier 1</title><g id="Calque_2" data-name="Calque 2"><g id="Calque_1-2" data-name="Calque 1"><circle class="cls-1" cx="97.4" cy="97.4" r="97.4"/><text class="cls-2" transform="translate(57.55 170.41) rotate(26.95)">I</text><text class="cls-2" transform="translate(65.3 174.38) rotate(18.08)">N</text><text class="cls-2" transform="matrix(0.99, 0.16, -0.16, 0.99, 81.53, 179.04)"> </text><text class="cls-2" transform="translate(89.38 180.39) rotate(1.06)">A</text><text class="cls-2" transform="matrix(0.99, -0.13, 0.13, 0.99, 105.86, 180.12)"> </text><text class="cls-2" transform="matrix(0.96, -0.27, 0.27, 0.96, 113.76, 179.17)">H</text><text class="cls-2" transform="translate(130.01 174.14) rotate(-27.38)">U</text><text class="cls-2" transform="matrix(0.78, -0.62, 0.62, 0.78, 144.49, 166.15)">R</text><text class="cls-2" transform="translate(156.39 156.25) rotate(-49.02)">R</text><text class="cls-2" transform="matrix(0.51, -0.86, 0.86, 0.51, 166.27, 144.31)">Y</text><text class="cls-2" transform="translate(173.43 131.12) rotate(-67.53)"> </text><text class="cls-2" transform="translate(176.35 123.93) rotate(-74.79)">?</text><text class="cls-2" transform="translate(179.42 111.11) rotate(-82.06)"> </text><text class="cls-2" transform="translate(180.32 103.68) rotate(-87.19)"> </text><text class="cls-2" transform="matrix(-0.04, -1, 1, -0.04, 180.54, 96.23)"> </text><text class="cls-2" transform="translate(180.1 88.74) rotate(-97.38)"> </text><text class="cls-2" transform="matrix(-0.22, -0.98, 0.98, -0.22, 179, 81.35)"> </text><text class="cls-2" transform="matrix(-0.31, -0.95, 0.95, -0.31, 177.23, 74.05)"> </text><text class="cls-2" transform="translate(174.8 66.96) rotate(-112.97)"> </text><text class="cls-2" transform="translate(171.74 60.11) rotate(-118.17)"> </text><text class="cls-2" transform="matrix(-0.55, -0.84, 0.84, -0.55, 168.09, 53.6)"> </text><text class="cls-2" transform="translate(163.85 47.42) rotate(-128.46)"> </text><text class="cls-2" transform="translate(159.09 41.65) rotate(-133.59)"> </text><text class="cls-2" transform="translate(153.81 36.31) rotate(-138.74)"> </text><text class="cls-2" transform="translate(147.92 31.16) rotate(-146.39)">S</text><text class="cls-2" transform="translate(135.41 23.3) rotate(-156.11)">E</text><text class="cls-2" transform="matrix(-0.97, -0.23, 0.23, -0.97, 122.93, 17.99)">N</text><text class="cls-2" transform="matrix(-1, -0.02, 0.02, -1, 105.96, 14.47)">D</text><text class="cls-2" transform="translate(89.46 14.63) rotate(173.12)"> </text><text class="cls-2" transform="translate(81.35 15.42) rotate(163.39)">M</text><text class="cls-2" transform="translate(62.16 21.94) rotate(151.62)">E</text><text class="cls-2" transform="translate(50.87 28.48) rotate(144.45)"> </text><text class="cls-2" transform="translate(44.38 33.06) rotate(136.07)">A</text><text class="cls-2" transform="matrix(-0.56, 0.83, -0.83, -0.56, 32.41, 45.15)">N</text><text class="cls-2" transform="translate(23.42 59.41) rotate(115.75)"> </text><text class="cls-2" transform="translate(20.08 66.44) rotate(108.52)">E</text><text class="cls-2" transform="translate(15.82 79.46) rotate(96.77)">M</text><text class="cls-2" transform="matrix(0.1, 0.99, -0.99, 0.1, 14.06, 99.78)">A</text><text class="cls-2" transform="matrix(0.25, 0.97, -0.97, 0.25, 16.37, 116.19)">I</text><text class="cls-2" transform="translate(18.63 124.34) rotate(68.26)">L</text><rect class="cls-3" x="74" y="84.35" width="46.56" height="27.94" transform="translate(6.41 -5.95) rotate(3.62)"/><polyline class="cls-3" points="74.55 85.12 97.4 98.33 121.14 88.46"/></g></g></svg>